<?xml version="1.0" encoding="UTF-8"?>
<svg xmlns="http://www.w3.org/2000/svg" xmlns:xlink="http://www.w3.org/1999/xlink" width="24pt" height="24pt" viewBox="0 0 24 24" version="1.1">
<g id="surface272282">
<path style=" stroke:none;fill-rule:nonzero;fill:rgb(100%,100%,100%);fill-opacity:1;" d="M 10 2 L 9 3 L 4 3 L 4 5 L 5 5 L 5 20 C 5 21.09375 5.90625 22 7 22 L 17 22 C 18.09375 22 19 21.09375 19 20 L 19 5 L 20 5 L 20 3 L 15 3 L 14 2 Z M 7 5 L 17 5 L 17 20 L 7 20 Z M 9.707031 8.292969 L 8.292969 9.707031 L 10.585938 12 L 8.292969 14.292969 L 9.707031 15.707031 L 12 13.414062 L 14.292969 15.707031 L 15.707031 14.292969 L 13.414062 12 L 15.707031 9.707031 L 14.292969 8.292969 L 12 10.585938 Z M 9.707031 8.292969 "/>
</g>
</svg>
